<svg id="logo" xmlns="http://www.w3.org/2000/svg" width="33.525" height="32.394" viewBox="0 0 33.525 32.394">
  <path id="XMLID_58_" d="M453,110.3h4.808a3.074,3.074,0,0,1,2.336,1.3,3.034,3.034,0,0,1,.508,1.7v7.5a2.8,2.8,0,0,0,1.828.521c-.948.223-3.772-.068-7.767-2.959.047-1.578,0-5.417,0-5.417S454.693,110.862,453,110.3Z" transform="translate(-446.723 -110.3)" fill="#242842"/>
  <path id="XMLID_54_" d="M717.3,110.3h4.93a2.8,2.8,0,0,1,2.126.955,2.429,2.429,0,0,1,.6,1.5V128.1s-1.117-3.284-5.925-5.248v-9.534a3.883,3.883,0,0,0-.345-1.632A2.469,2.469,0,0,0,717.3,110.3Z" transform="translate(-693.126 -110.3)" fill="#242842"/>
  <path id="XMLID_60_" d="M360.3,145.6s7.374,8.755,17.849,10.2a2.645,2.645,0,0,0,.332.02h4.848s7.178.2,8.8,7.313v9.426a2.669,2.669,0,0,0,.068.609c.156.664.6,2.072,1.625,2.431h-4.943a3.006,3.006,0,0,1-2.709-3.25c0-2.776.068-7.11.068-7.11a4.107,4.107,0,0,0-3.589-3.677h-4.923C377.723,161.567,361.925,160.565,360.3,145.6Z" transform="translate(-360.3 -143.21)" fill="#242842"/>
  <path id="XMLID_61_" d="M453,328.6a18.866,18.866,0,0,0,7.672,3.657v4.537a3.923,3.923,0,0,0,4.2,3.657c2.979.068,3.047,3.183,3.047,3.183v2.573h-4.93a4.687,4.687,0,0,1-1.226-.163c-1.666-.454-5.735-2.011-6.785-6.6a8.306,8.306,0,0,1-.2-1.828v-7.069A5.22,5.22,0,0,1,453,328.6Z" transform="translate(-446.723 -313.818)" fill="#242842"/>
</svg>
